<svg xmlns="http://www.w3.org/2000/svg" viewBox="0 0 220 220">
  <defs>
    <radialGradient id="bg" cx="35%" cy="25%"><stop offset="0" stop-color="#fffde8"/><stop offset=".72" stop-color="#f4c84b"/><stop offset="1" stop-color="#d89416"/></radialGradient>
    <linearGradient id="bowl" x1="0" y1="0" x2="0" y2="1"><stop stop-color="#fff7d7"/><stop offset="1" stop-color="#e9a72b"/></linearGradient>
  </defs>
  <circle cx="110" cy="110" r="104" fill="url(#bg)"/>
  <g transform="translate(34 62)">
    <path d="M15 50h122c-6 39-27 55-61 55S21 89 15 50z" fill="url(#bowl)" stroke="#8f4b18" stroke-width="5"/>
    <ellipse cx="76" cy="51" rx="62" ry="22" fill="#fff3c5" stroke="#8f4b18" stroke-width="5"/>
    <path d="M45 48c10-18 19 5 28-13M64 50c10-20 18 4 27-14M83 50c9-17 17 4 26-12" fill="none" stroke="#d79a34" stroke-width="5" stroke-linecap="round"/>
    <path d="M35 37c10-15 22-17 34-9M83 29c13-8 25-6 35 8" fill="none" stroke="#d6282e" stroke-width="6" stroke-linecap="round"/>
    <path d="M54 8l45 42M71 5l34 44" stroke="#4c2b17" stroke-width="5" stroke-linecap="round"/>
  </g>
  <rect x="32" y="156" width="156" height="32" rx="16" fill="#a52d24" stroke="#ffe18a" stroke-width="3"/>
  <text x="110" y="178" text-anchor="middle" font-family="Georgia,serif" font-size="16" font-weight="900" fill="#ffe8a2">PHỞ NHÀ ANNA</text>
</svg>
